<mxfile host="app.diagrams.net" modified="2023-10-26T09:26:09.154Z" agent="Mozilla/5.0 (Macintosh; Intel Mac OS X 10_15_7) AppleWebKit/537.36 (KHTML, like Gecko) Chrome/118.0.0.0 Safari/537.36" version="22.0.8" etag="gnYA1xHzDDaxO3-vdHW7" type="github">
  <diagram name="Page-1" id="NddgPvQMaelLqw8cInIi">
    <mxGraphModel>
      <root>
        <mxCell id="0" />
        <mxCell id="1" parent="0" />
      </root>
    </mxGraphModel>
  </diagram>
</mxfile>
